<?xml version="1.0" encoding="UTF-8" standalone="no"?>
<!-- Created with Inkscape (http://www.inkscape.org/) -->
<svg
   xmlns:dc="http://purl.org/dc/elements/1.1/"
   xmlns:cc="http://web.resource.org/cc/"
   xmlns:rdf="http://www.w3.org/1999/02/22-rdf-syntax-ns#"
   xmlns:svg="http://www.w3.org/2000/svg"
   xmlns="http://www.w3.org/2000/svg"
   xmlns:sodipodi="http://sodipodi.sourceforge.net/DTD/sodipodi-0.dtd"
   xmlns:inkscape="http://www.inkscape.org/namespaces/inkscape"
   width="210mm"
   height="297mm"
   id="svg2"
   sodipodi:version="0.32"
   inkscape:version="0.43+0.44pre4"
   sodipodi:docbase="D:\Projekte\Grafik\Nachbau\Wikipedia"
   sodipodi:docname="lfp_logo.svg">
  <defs
     id="defs4" />
  <sodipodi:namedview
     id="base"
     pagecolor="#ffffff"
     bordercolor="#666666"
     borderopacity="1.0"
     inkscape:pageopacity="0.0"
     inkscape:pageshadow="2"
     inkscape:zoom="0.50704159"
     inkscape:cx="363.09824"
     inkscape:cy="445.6403"
     inkscape:document-units="px"
     inkscape:current-layer="layer1"
     inkscape:window-width="1280"
     inkscape:window-height="781"
     inkscape:window-x="-4"
     inkscape:window-y="-4"
     showguides="true"
     inkscape:guide-bbox="true" />
  <metadata
     id="metadata7">
    <rdf:RDF>
      <cc:Work
         rdf:about="">
        <dc:format>image/svg+xml</dc:format>
        <dc:type
           rdf:resource="http://purl.org/dc/dcmitype/StillImage" />
      </cc:Work>
    </rdf:RDF>
  </metadata>
  <g
     inkscape:label="Ebene 1"
     inkscape:groupmode="layer"
     id="layer1">
    <path
       style="fill:#a2217c;fill-opacity:1;fill-rule:evenodd;stroke:none;stroke-width:1px;stroke-linecap:butt;stroke-linejoin:miter;stroke-opacity:1"
       d="M 325.75307,9.0552654 C 250.26022,24.323475 151.01686,100.66455 130.65923,173.6127 L 262.98372,236.38199 C 278.67606,211.35909 295.21663,168.52327 361.3789,156.648 L 325.75307,9.0552654 z "
       id="path1941"
       sodipodi:nodetypes="ccccc" />
    <path
       style="fill:#e9172b;fill-opacity:1;fill-rule:evenodd;stroke:none;stroke-width:1px;stroke-linecap:butt;stroke-linejoin:miter;stroke-opacity:1"
       d="M 629.21848,123.48202 C 571.09547,72.94487 451.73701,44.284518 381.49993,72.615059 L 412.40523,215.7745 C 441.80718,212.96041 485.84683,199.96014 535.59237,245.16909 L 629.21848,123.48202 z "
       id="path2830"
       sodipodi:nodetypes="ccccc" />
    <path
       style="fill:#f09b48;fill-opacity:1;fill-rule:evenodd;stroke:none;stroke-width:1px;stroke-linecap:butt;stroke-linejoin:miter;stroke-opacity:1"
       d="M 737.63654,432.53791 C 738.80477,355.52542 683.49427,240.03101 616.55911,204.59727 L 527.03594,312.61937 C 548.1405,333.28314 586.46819,366.46013 583.97307,433.63335 L 737.63654,432.53791 z "
       id="path2832"
       sodipodi:nodetypes="ccccc" />
    <path
       style="fill:#f2ea30;fill-opacity:1;fill-rule:evenodd;stroke:none;stroke-width:1px;stroke-linecap:butt;stroke-linejoin:miter;stroke-opacity:1"
       d="M 565.81992,702.16899 C 627.5812,656.14909 676.19934,547.55499 663.48533,472.89428 L 517.02828,472.58582 C 513.51286,501.91218 520.77518,549.68277 466.00481,588.65291 L 565.81992,702.16899 z "
       id="path2834"
       sodipodi:nodetypes="ccccc" />
    <path
       style="fill:#60a32c;fill-opacity:1;fill-rule:evenodd;stroke:none;stroke-width:1px;stroke-linecap:butt;stroke-linejoin:miter;stroke-opacity:1"
       d="M 241.88149,733.98433 C 316.27821,753.9196 434.84159,729.72317 485.5451,673.46465 L 394.99863,558.35121 C 369.80757,573.77211 332.53424,604.76589 268.00299,585.94611 L 241.88149,733.98433 z "
       id="path2836"
       sodipodi:nodetypes="ccccc" />
    <path
       style="fill:#7899b5;fill-opacity:1;fill-rule:evenodd;stroke:none;stroke-width:1px;stroke-linecap:butt;stroke-linejoin:miter;stroke-opacity:1"
       d="M 11.731854,506.09186 C 44.558177,575.76769 140.48566,656.3371 216.18378,658.71604 L 245.59541,515.2423 C 217.55284,505.9682 172.00876,500.11714 144.70209,438.69389 L 11.731854,506.09186 z "
       id="path2838"
       sodipodi:nodetypes="ccccc" />
    <path
       style="fill:#2f4a89;fill-opacity:1;fill-rule:evenodd;stroke:none;stroke-width:1px;stroke-linecap:butt;stroke-linejoin:miter;stroke-opacity:1"
       d="M 50.608115,177.44772 C 17.312426,246.90047 18.769037,371.08179 59.637974,434.6719 L 189.45802,373.66015 C 178.94024,346.05997 158.10917,300.26517 188.49154,240.30372 L 50.608115,177.44772 z "
       id="path2840"
       sodipodi:nodetypes="ccccc" />
    <g
       id="g2874"
       transform="matrix(1.72036,0,0,1.72036,-225.5991,-172.7769)">
      <path
         transform="matrix(0.723077,0,0,0.723077,370.3988,70.31058)"
         d="M 59.166744 352.71542 A 96.145958 96.145958 0 1 1  -133.12517,352.71542 A 96.145958 96.145958 0 1 1  59.166744 352.71542 z"
         sodipodi:ry="96.145958"
         sodipodi:rx="96.145958"
         sodipodi:cy="352.71542"
         sodipodi:cx="-36.979214"
         id="path2844"
         style="opacity:1;fill:black;fill-opacity:1;stroke:none;stroke-width:3;stroke-linecap:round;stroke-linejoin:round;stroke-miterlimit:4;stroke-dasharray:none;stroke-dashoffset:0;stroke-opacity:1"
         sodipodi:type="arc" />
      <path
         sodipodi:nodetypes="ccccccc"
         id="path2856"
         d="M 297.11318,309.30123 L 324.24174,318.25382 L 341.99293,302.093 L 342.65953,272.23682 L 322.18629,263.03212 C 309.9694,266.58714 295.28721,275.56576 288.2474,289.968 L 297.11318,309.30123 z "
         style="fill:white;fill-opacity:1;fill-rule:evenodd;stroke:none;stroke-width:1px;stroke-linecap:butt;stroke-linejoin:miter;stroke-opacity:1" />
      <path
         style="fill:white;fill-opacity:1;fill-rule:evenodd;stroke:none;stroke-width:1px;stroke-linecap:butt;stroke-linejoin:miter;stroke-opacity:1"
         d="M 346.10926,272.41094 L 345.49308,302.25304 L 365.55988,318.13232 L 390.04449,310.31965 L 400.0828,293.81129 C 395.30031,282.02067 383.51248,269.94949 368.46736,264.41528 L 346.10926,272.41094 z "
         id="use2858"
         sodipodi:nodetypes="ccccccc" />
      <path
         sodipodi:nodetypes="ccccccc"
         id="use2860"
         d="M 391.03935,313.19913 L 367.30819,320.94454 L 358.63888,341.91104 L 375.24287,364.21603 L 395.37795,365.7491 C 404.49136,356.87009 410.14227,341.5226 409.58849,325.50147 L 391.03935,313.19913 z "
         style="fill:white;fill-opacity:1;fill-rule:evenodd;stroke:none;stroke-width:1px;stroke-linecap:butt;stroke-linejoin:miter;stroke-opacity:1" />
      <path
         style="fill:white;fill-opacity:1;fill-rule:evenodd;stroke:none;stroke-width:1px;stroke-linecap:butt;stroke-linejoin:miter;stroke-opacity:1"
         d="M 372.08223,366.07578 L 356.50384,344.04176 L 333.77681,344.00767 L 314.8774,366.74453 L 322.94966,387.43108 C 334.01562,393.71085 351.09439,392.1104 366.3273,387.11627 L 372.08223,366.07578 z "
         id="use2862"
         sodipodi:nodetypes="ccccccc" />
      <path
         style="fill:white;fill-opacity:1;fill-rule:evenodd;stroke:none;stroke-width:1px;stroke-linecap:butt;stroke-linejoin:miter;stroke-opacity:1"
         d="M 312.21091,364.38146 L 330.95904,342.77129 L 322.29974,321.24988 L 295.91207,312.25792 L 278.73389,325.31287 C 276.67198,337.86833 280.54723,350.98452 290.50466,363.54769 L 312.21091,364.38146 z "
         id="use2864"
         sodipodi:nodetypes="ccccccc" />
    </g>
    <path
       style="font-size:201.83869934px;font-style:normal;font-weight:normal;fill:black;fill-opacity:1;stroke:none;stroke-width:1px;stroke-linecap:butt;stroke-linejoin:miter;stroke-opacity:1;font-family:Bitstream Vera Sans"
       d="M 150.04706,800.13972 L 180.85621,800.13972 L 180.85621,1014.3843 L 261.01978,1014.3843 L 261.01978,1040.5579 L 150.04706,1040.5579 L 150.04706,800.13972 z M 292.25623,800.13972 L 401.47697,800.13972 L 401.47697,826.31326 L 323.06536,826.31326 L 323.06536,902.78415 L 397.62051,902.78415 L 397.62051,928.95768 L 323.06536,928.95768 L 323.06536,1040.5579 L 292.25623,1040.5579 L 292.25623,800.13972 z M 472.11152,915.17717 L 488.91552,915.17717 C 507.5818,915.17729 520.76612,911.21621 528.46853,903.29396 C 536.17069,895.37196 540.02182,884.63801 540.02194,871.09209 C 540.02182,854.56126 535.58669,842.73586 526.71655,835.6159 C 517.84617,828.49636 505.47732,824.93649 489.60991,824.93626 L 472.11152,824.93626 L 472.11152,915.17717 z M 441.30237,800.13972 L 500.11107,800.13972 C 512.48164,800.13996 522.75135,801.74647 530.92022,804.95922 C 539.08887,808.17246 546.4386,812.76422 552.96947,818.73449 C 559.03716,824.70524 563.76251,831.82498 567.14553,840.0938 C 570.52825,848.36299 572.21969,857.77776 572.21985,868.33809 C 572.21969,891.98903 565.51091,909.84273 552.09348,921.89924 C 538.67579,933.956 518.89843,939.98431 492.76133,939.98421 L 472.11152,939.98421 L 472.11152,1040.5579 L 441.30237,1040.5579 L 441.30237,800.13972 z "
       id="text2882" />
  </g>
</svg>
